<svg width="512" height="512" viewBox="0 0 512 512" xmlns="http://www.w3.org/2000/svg" xmlns:xlink="http://www.w3.org/1999/xlink" id="Layer_1" overflow="hidden"><g><path d="M256 272.702C264.36 272.702 272.271 275.072 279 279.267L279 0 232.999 0 232.999 279.267C239.729 275.072 247.64 272.702 256 272.702Z" fill="#FFFFFF"/><path d="M166 0C157.716 0 151 6.716 151 15L151 235.695C151 240.223 153.045 244.508 156.565 247.356L202.999 284.924 202.999 0Z" fill="#FFFFFF"/><path d="M355.434 247.356C358.955 244.508 360.999 240.222 360.999 235.695L360.999 15C360.999 6.716 354.283 0 345.999 0L308.999 0 308.999 284.925Z" fill="#FFFFFF"/><path d="M351.367 370.99 289.001 370.99 269.729 311.677C267.796 305.729 262.254 301.702 256 301.702 249.746 301.702 244.203 305.729 242.271 311.677L222.999 370.99 160.633 370.99C154.379 370.99 148.836 375.017 146.904 380.965 144.971 386.913 147.088 393.429 152.148 397.105L202.603 433.763 183.331 493.076C181.398 499.024 183.515 505.54 188.575 509.216 191.105 511.054 198.859 514.436 205.545 509.216L256 472.558 306.456 509.216C311.514 512.892 318.367 512.892 323.426 509.216 328.486 505.54 330.603 499.024 328.67 493.076L309.398 433.763 359.853 397.105C364.913 393.429 367.03 386.913 365.097 380.965 363.164 375.017 357.621 370.99 351.367 370.99Z" fill="#FFFFFF"/></g></svg>